<svg xmlns="http://www.w3.org/2000/svg" width="139" height="34" viewBox="0 0 139 34" fill="none"><path d="M13.6426 4.58789C13.6426 5.18555 13.5195 5.63086 13.2734 5.92383C13.0391 6.2168 12.7578 6.45703 12.4297 6.64453C12.1133 6.83203 11.832 7.04883 11.5859 7.29492C11.3516 7.54102 11.2344 7.91602 11.2344 8.41992V21.4805C11.2344 21.9492 11.3281 22.3359 11.5156 22.6406C11.7148 22.9336 12.0723 23.0801 12.5879 23.0801H13.4844C14.375 23.0801 15.0664 22.9043 15.5586 22.5527C16.0508 22.1895 16.4316 21.75 16.7012 21.2344C16.9824 20.707 17.2285 20.1855 17.4395 19.6699C17.6504 19.1426 17.9082 18.7031 18.2129 18.3516C18.5176 17.9883 18.957 17.8066 19.5312 17.8066C20.1172 17.8066 20.6094 17.9766 21.0078 18.3164C21.4062 18.6445 21.6055 19.1133 21.6055 19.7227C21.6055 19.9805 21.5703 20.2324 21.5 20.4785L20.3047 24.8379C20.082 25.623 19.7891 26.2852 19.4258 26.8242C19.0742 27.3516 18.4297 27.6152 17.4922 27.6152C17.1289 27.6152 16.7656 27.5684 16.4023 27.4746C16.0508 27.3809 15.6992 27.293 15.3477 27.2109C15.0312 27.1289 14.7148 27.0703 14.3984 27.0352C14.082 27.0117 13.7598 27 13.4316 27H2.28711C1.6543 27 1.14453 26.8477 0.757812 26.543C0.371094 26.2383 0.177734 25.752 0.177734 25.084C0.177734 24.4746 0.300781 24.0234 0.546875 23.7305C0.792969 23.4375 1.07422 23.2031 1.39062 23.0273C1.70703 22.8398 1.98828 22.623 2.23438 22.377C2.48047 22.1309 2.60352 21.7559 2.60352 21.252V8.41992C2.60352 7.91602 2.48047 7.54102 2.23438 7.29492C1.98828 7.04883 1.70703 6.83789 1.39062 6.66211C1.07422 6.47461 0.792969 6.23438 0.546875 5.94141C0.300781 5.64844 0.177734 5.19727 0.177734 4.58789C0.177734 3.91992 0.371094 3.43359 0.757812 3.12891C1.14453 2.82422 1.6543 2.67188 2.28711 2.67188H11.5332C12.166 2.67188 12.6758 2.82422 13.0625 3.12891C13.4492 3.43359 13.6426 3.91992 13.6426 4.58789ZM40.1855 15.3809C40.1855 16.4238 39.875 17.2148 39.2539 17.7539C38.6445 18.293 37.8359 18.5625 36.8281 18.5625H29.7441C30.0137 19.5703 30.4941 20.4199 31.1855 21.1113C31.877 21.791 32.873 22.1309 34.1738 22.1309C34.6895 22.1309 35.1992 22.0254 35.7031 21.8145C36.2188 21.5918 36.6992 21.334 37.1445 21.041C37.6016 20.748 38 20.4961 38.3398 20.2852C38.6797 20.0625 38.9375 19.9512 39.1133 19.9512C39.4531 19.9512 39.6992 20.0742 39.8516 20.3203C40.0039 20.5547 40.0801 20.8242 40.0801 21.1289C40.0801 22.1953 39.8281 23.1328 39.3242 23.9414C38.832 24.7383 38.1758 25.4004 37.3555 25.9277C36.5469 26.4551 35.6562 26.8477 34.6836 27.1055C33.7227 27.375 32.7734 27.5098 31.8359 27.5098C29.9961 27.5098 28.373 27.1289 26.9668 26.3672C25.5605 25.6055 24.459 24.5391 23.6621 23.168C22.877 21.7852 22.4844 20.1621 22.4844 18.2988C22.4844 16.3066 22.8652 14.5723 23.627 13.0957C24.4004 11.6191 25.5078 10.4766 26.9492 9.66797C28.3906 8.84766 30.1191 8.4375 32.1348 8.4375C33.5293 8.4375 34.8359 8.70117 36.0547 9.22852C37.2852 9.75586 38.2812 10.5352 39.043 11.5664C39.8047 12.5977 40.1855 13.8691 40.1855 15.3809ZM29.4277 15.8555C29.4277 15.9844 29.4277 16.1133 29.4277 16.2422H31.2559C31.7012 16.2422 32.0059 16.1426 32.1699 15.9434C32.334 15.7324 32.416 15.416 32.416 14.9941C32.416 14.7129 32.3809 14.3438 32.3105 13.8867C32.2402 13.4297 32.0996 13.0195 31.8887 12.6562C31.6895 12.293 31.3965 12.1113 31.0098 12.1113C30.6582 12.1113 30.377 12.2578 30.166 12.5508C29.9551 12.832 29.7969 13.1895 29.6914 13.623C29.5859 14.0449 29.5156 14.4609 29.4805 14.8711C29.4453 15.2812 29.4277 15.6094 29.4277 15.8555ZM50.7324 2.23242V10.5293C51.3887 9.9082 52.1211 9.4043 52.9297 9.01758C53.75 8.63086 54.6465 8.4375 55.6191 8.4375C56.8145 8.4375 57.8516 8.70117 58.7305 9.22852C59.6211 9.75586 60.3535 10.4531 60.9277 11.3203C61.5137 12.1875 61.9473 13.1484 62.2285 14.2031C62.5215 15.2578 62.668 16.3125 62.668 17.3672C62.668 19.125 62.3281 20.7773 61.6484 22.3242C60.9688 23.8711 59.9727 25.125 58.6602 26.0859C57.3594 27.0352 55.7539 27.5098 53.8438 27.5098C52.9883 27.5098 52.209 27.3809 51.5059 27.123C50.8027 26.8652 50.1641 26.502 49.5898 26.0332C48.7109 26.3613 47.7734 26.6836 46.7773 27C45.7812 27.3164 44.9023 27.4746 44.1406 27.4746C43.7305 27.4746 43.4082 27.3457 43.1738 27.0879C42.9512 26.8301 42.8398 26.502 42.8398 26.1035V7.68164C42.8398 7.1543 42.7578 6.76172 42.5938 6.50391C42.4297 6.23438 42.2363 6.02344 42.0137 5.87109C41.791 5.70703 41.5977 5.53125 41.4336 5.34375C41.2695 5.15625 41.1875 4.875 41.1875 4.5C41.1875 4.01953 41.334 3.65625 41.627 3.41016C41.9199 3.15234 42.2656 2.94727 42.6641 2.79492L46.4434 1.26562C46.8887 1.07812 47.3457 0.914062 47.8145 0.773438C48.2832 0.632812 48.7637 0.5625 49.2559 0.5625C49.7363 0.5625 50.0996 0.732422 50.3457 1.07227C50.6035 1.40039 50.7324 1.78711 50.7324 2.23242ZM51.9277 13.0078C51.4941 13.0078 51.0957 13.1543 50.7324 13.4473V22.834C50.9199 23.0332 51.1309 23.1973 51.3652 23.3262C51.5996 23.4434 51.8633 23.502 52.1562 23.502C52.6836 23.502 53.1055 23.3086 53.4219 22.9219C53.7383 22.5234 53.9727 22.0312 54.125 21.4453C54.2891 20.8594 54.3945 20.2734 54.4414 19.6875C54.4883 19.1016 54.5117 18.6211 54.5117 18.2461C54.5117 17.8359 54.4824 17.3379 54.4238 16.752C54.3652 16.166 54.2422 15.5859 54.0547 15.0117C53.8789 14.4375 53.6211 13.9629 53.2812 13.5879C52.9414 13.2012 52.4902 13.0078 51.9277 13.0078ZM64.3555 22.957C64.3555 21.8789 64.6074 20.9824 65.1113 20.2676C65.6152 19.541 66.2715 18.9609 67.0801 18.5273C67.9004 18.082 68.7852 17.7656 69.7344 17.5781C70.6836 17.3906 71.5977 17.2969 72.4766 17.2969C72.7344 17.2969 72.998 17.3027 73.2676 17.3145C73.5371 17.3145 73.8008 17.3379 74.0586 17.3848V12.8145C74.0586 12.5215 73.9941 12.1816 73.8652 11.7949C73.748 11.4082 73.502 11.2148 73.127 11.2148C72.7637 11.2148 72.5352 11.3672 72.4414 11.6719C72.3594 11.9648 72.3184 12.2461 72.3184 12.5156C72.3184 12.6328 72.3184 12.7559 72.3184 12.8848C72.3301 13.002 72.3359 13.125 72.3359 13.2539C72.3359 14.4609 71.9199 15.3105 71.0879 15.8027C70.2559 16.2832 69.3066 16.5234 68.2402 16.5234C67.3496 16.5234 66.5762 16.3242 65.9199 15.9258C65.2637 15.5273 64.9355 14.8242 64.9355 13.8164C64.9355 13.418 65.0117 13.0312 65.1641 12.6562C65.3281 12.2812 65.5332 11.9473 65.7793 11.6543C66.4941 10.7871 67.3906 10.125 68.4688 9.66797C69.5586 9.21094 70.7012 8.90039 71.8965 8.73633C73.1035 8.56055 74.2344 8.47266 75.2891 8.47266C76.4844 8.47266 77.5801 8.64258 78.5762 8.98242C79.5723 9.32227 80.3691 9.89062 80.9668 10.6875C81.5645 11.4727 81.8633 12.5332 81.8633 13.8691V21.9727C81.8633 22.1719 81.9102 22.3477 82.0039 22.5C82.0977 22.6523 82.2559 22.7285 82.4785 22.7285C82.6543 22.7285 82.8008 22.6758 82.918 22.5703C83.0469 22.4531 83.1992 22.3945 83.375 22.3945C83.7148 22.3945 83.9668 22.5117 84.1309 22.7461C84.3066 22.9805 84.3945 23.2559 84.3945 23.5723C84.3945 24.3926 84.1426 25.1016 83.6387 25.6992C83.1465 26.2852 82.5312 26.7305 81.793 27.0352C81.0547 27.3516 80.3105 27.5098 79.5605 27.5098C78.6816 27.5098 77.791 27.3164 76.8887 26.9297C75.998 26.543 75.3828 25.9395 75.043 25.1191C74.4453 25.9512 73.625 26.5605 72.582 26.9473C71.5508 27.3223 70.5371 27.5098 69.541 27.5098C68.627 27.5098 67.7715 27.3398 66.9746 27C66.1895 26.6484 65.5566 26.1328 65.0762 25.4531C64.5957 24.7734 64.3555 23.9414 64.3555 22.957ZM72.2832 21.4102C72.2832 21.8789 72.3945 22.3242 72.6172 22.7461C72.8398 23.1562 73.2207 23.3613 73.7598 23.3613C73.8652 23.3613 73.9648 23.3496 74.0586 23.3262V19.6875C73.8594 19.6055 73.6543 19.5645 73.4434 19.5645C72.998 19.5645 72.6934 19.7871 72.5293 20.2324C72.3652 20.666 72.2832 21.0586 72.2832 21.4102ZM105.312 28.4062C105.312 29.3789 105.008 30.1934 104.398 30.8496C103.789 31.5176 102.998 32.0566 102.025 32.4668C101.064 32.877 100.027 33.1875 98.9141 33.3984C97.8125 33.6094 96.7461 33.75 95.7148 33.8203C94.6953 33.9023 93.8398 33.9434 93.1484 33.9434C92.6797 33.9434 92.082 33.9258 91.3555 33.8906C90.6406 33.8672 89.8906 33.7969 89.1055 33.6797C88.3203 33.5625 87.582 33.375 86.8906 33.1172C86.2109 32.8711 85.6543 32.5254 85.2207 32.0801C84.7871 31.6348 84.5703 31.0723 84.5703 30.3926C84.5703 29.5488 84.8984 28.8867 85.5547 28.4062C86.2109 27.9375 87.002 27.5859 87.9277 27.3516C87.5059 27.1875 87.1543 26.9531 86.873 26.6484C86.5918 26.332 86.4512 25.9102 86.4512 25.3828C86.4512 24.6797 86.6738 24.1172 87.1191 23.6953C87.5762 23.2734 88.1504 22.957 88.8418 22.7461C89.5449 22.5234 90.2598 22.3652 90.9863 22.2715C89.9434 22.0254 88.9648 21.6504 88.0508 21.1465C87.1484 20.6426 86.416 19.9688 85.8535 19.125C85.3027 18.2812 85.0273 17.2383 85.0273 15.9961C85.0273 14.6602 85.2852 13.5293 85.8008 12.6035C86.3281 11.666 87.0312 10.9102 87.9102 10.3359C88.7891 9.75 89.7734 9.31641 90.8633 9.03516C91.9648 8.74219 93.0898 8.57812 94.2383 8.54297C94.6016 7.58203 95.0352 6.62109 95.5391 5.66016C96.0547 4.69922 96.7051 3.89648 97.4902 3.25195C98.2871 2.60742 99.2715 2.28516 100.443 2.28516C101.404 2.28516 102.195 2.56641 102.816 3.12891C103.449 3.69141 103.766 4.46484 103.766 5.44922C103.766 6.24609 103.566 6.97266 103.168 7.62891C102.781 8.27344 102.137 8.5957 101.234 8.5957C100.602 8.5957 100.115 8.4375 99.7754 8.12109C99.4355 7.79297 99.1426 7.46484 98.8965 7.13672C98.6504 6.80859 98.3574 6.64453 98.0176 6.64453C97.6543 6.64453 97.3438 6.87305 97.0859 7.33008C96.8281 7.77539 96.623 8.20313 96.4707 8.61328C97.7246 8.76563 98.9141 9.10547 100.039 9.63281C101.164 10.1484 102.078 10.8809 102.781 11.8301C103.496 12.7793 103.854 13.9746 103.854 15.416C103.854 16.6934 103.59 17.7949 103.062 18.7207C102.547 19.6348 101.85 20.3848 100.971 20.9707C100.104 21.5566 99.125 21.9902 98.0352 22.2715C96.957 22.541 95.8555 22.6758 94.7305 22.6758C94.3672 22.6758 94.0098 22.6641 93.6582 22.6406C93.5176 22.7812 93.4473 22.9219 93.4473 23.0625C93.4473 23.2969 93.6172 23.4668 93.957 23.5723C94.3086 23.666 94.7246 23.7246 95.2051 23.748C95.6855 23.7715 96.1367 23.7773 96.5586 23.7656C96.9922 23.7539 97.291 23.748 97.4551 23.748C98.2988 23.748 99.1777 23.7891 100.092 23.8711C101.006 23.9414 101.855 24.123 102.641 24.416C103.438 24.709 104.082 25.1719 104.574 25.8047C105.066 26.4258 105.312 27.293 105.312 28.4062ZM93.9395 11.2324C93.5996 11.2324 93.3594 11.373 93.2188 11.6543C93.0781 11.9355 92.9902 12.2578 92.9551 12.6211C92.9316 12.9844 92.9199 13.2832 92.9199 13.5176C92.9199 13.834 92.9375 14.3438 92.9727 15.0469C93.0195 15.7383 93.1074 16.4648 93.2363 17.2266C93.3652 17.9883 93.5586 18.6387 93.8164 19.1777C94.0859 19.7051 94.4492 19.9688 94.9062 19.9688C95.2695 19.9688 95.5273 19.8398 95.6797 19.582C95.832 19.3125 95.9199 19.002 95.9434 18.6504C95.9785 18.2988 95.9961 17.9941 95.9961 17.7363C95.9961 17.3965 95.9785 16.875 95.9434 16.1719C95.9082 15.457 95.8262 14.7246 95.6973 13.9746C95.5801 13.2129 95.3809 12.5684 95.0996 12.041C94.8184 11.502 94.4316 11.2324 93.9395 11.2324ZM90.8809 28.9863C90.8809 29.3496 91.0566 29.6367 91.4082 29.8477C91.7715 30.0586 92.2051 30.2168 92.709 30.3223C93.2246 30.4277 93.7168 30.4922 94.1855 30.5156C94.6543 30.5508 95 30.5684 95.2227 30.5684C95.4805 30.5684 95.8672 30.5273 96.3828 30.4453C96.9102 30.375 97.3965 30.2402 97.8418 30.041C98.2871 29.8418 98.5098 29.5547 98.5098 29.1797C98.5098 28.6523 98.2871 28.2832 97.8418 28.0723C97.4082 27.8613 96.916 27.7383 96.3652 27.7031C95.8145 27.668 95.3574 27.6504 94.9941 27.6504C94.4551 27.6504 93.916 27.6621 93.377 27.6855C92.8379 27.709 92.2988 27.7266 91.7598 27.7383C91.5137 27.9141 91.3027 28.1074 91.127 28.3184C90.9629 28.5293 90.8809 28.752 90.8809 28.9863ZM115.895 8.4375C117.828 8.4375 119.521 8.83594 120.975 9.63281C122.439 10.4297 123.582 11.5488 124.402 12.9902C125.223 14.4316 125.633 16.125 125.633 18.0703C125.633 19.9805 125.182 21.6445 124.279 23.0625C123.377 24.4688 122.164 25.5645 120.641 26.3496C119.129 27.123 117.447 27.5098 115.596 27.5098C113.65 27.5098 111.945 27.1113 110.48 26.3145C109.016 25.5059 107.873 24.375 107.053 22.9219C106.244 21.457 105.84 19.752 105.84 17.8066C105.84 15.9082 106.297 14.2559 107.211 12.8496C108.125 11.4434 109.344 10.3594 110.867 9.59766C112.391 8.82422 114.066 8.4375 115.895 8.4375ZM116.896 23.625C117.189 23.625 117.395 23.4727 117.512 23.168C117.641 22.8633 117.723 22.5293 117.758 22.166C117.793 21.791 117.811 21.5039 117.811 21.3047C117.811 20.6367 117.758 19.9746 117.652 19.3184C117.547 18.6504 117.412 17.9941 117.248 17.3496C117.189 17.0918 117.078 16.6934 116.914 16.1543C116.75 15.6035 116.551 15.0293 116.316 14.4316C116.082 13.834 115.824 13.3242 115.543 12.9023C115.262 12.4805 114.963 12.2695 114.646 12.2695C114.377 12.2695 114.178 12.4219 114.049 12.7266C113.932 13.0312 113.855 13.3711 113.82 13.7461C113.785 14.1094 113.768 14.3848 113.768 14.5723C113.768 14.8887 113.814 15.3984 113.908 16.1016C114.002 16.793 114.137 17.5664 114.312 18.4219C114.5 19.2773 114.723 20.1035 114.98 20.9004C115.238 21.6855 115.525 22.3359 115.842 22.8516C116.17 23.3672 116.521 23.625 116.896 23.625ZM135.793 0.5625C136.273 0.5625 136.643 0.726562 136.9 1.05469C137.17 1.38281 137.305 1.77539 137.305 2.23242V21.709C137.305 22.0488 137.322 22.3828 137.357 22.7109C137.393 23.0273 137.539 23.3145 137.797 23.5723C138.113 23.8887 138.383 24.1465 138.605 24.3457C138.84 24.5332 138.957 24.8848 138.957 25.4004C138.957 25.9277 138.793 26.3262 138.465 26.5957C138.137 26.8652 137.721 27 137.217 27H129.482C128.979 27 128.562 26.8652 128.234 26.5957C127.906 26.3262 127.742 25.9277 127.742 25.4004C127.742 24.9551 127.824 24.6328 127.988 24.4336C128.152 24.2227 128.346 24.041 128.568 23.8887C128.791 23.7363 128.984 23.5254 129.148 23.2559C129.312 22.9746 129.395 22.5352 129.395 21.9375V7.68164C129.395 7.11914 129.301 6.70898 129.113 6.45117C128.926 6.19336 128.703 6 128.445 5.87109C128.199 5.73047 127.982 5.57227 127.795 5.39648C127.607 5.20898 127.514 4.91016 127.514 4.5C127.514 4.03125 127.666 3.66797 127.971 3.41016C128.275 3.15234 128.621 2.94727 129.008 2.79492L132.928 1.26562C133.396 1.07812 133.865 0.914062 134.334 0.773438C134.803 0.632812 135.289 0.5625 135.793 0.5625Z" fill="#ED1C27"></path></svg>