<svg xmlns="http://www.w3.org/2000/svg" width="26" height="54" viewBox="0 0 26 54" fill="none"><path fill-rule="evenodd" clip-rule="evenodd" d="M13.825 0.173965C16.1087 0.753715 16.8274 2.98875 15.1669 4.16425C14.6844 4.5051 13.9436 4.86294 12.8199 5.29576C9.6235 6.52423 8.83849 7.78768 9.20034 9.8288C9.20034 9.8288 9.16013 7.80468 12.5183 6.93905C15.8765 6.07442 17.9883 5.50267 17.928 3.23565C17.8677 0.968623 16.1981 -0.526733 13.825 0.173965Z" fill="#FAF2E7"/><path fill-rule="evenodd" clip-rule="evenodd" d="M2.88 19.2617C1.91506 13.0084 6.56887 11.1063 12.1504 10.5815C14.9337 10.3196 17.5973 10.0697 18.6648 8.12254C18.7009 8.05557 18.7361 7.9866 18.7673 7.91663C19.0558 7.27791 19.0688 6.61719 18.8236 6.01945C18.4577 5.12883 17.6003 4.5021 16.7399 4.11827L17.2867 2.90479C18.7311 3.08571 22.1777 5.38272 20.6549 8.75427C20.6027 8.87022 20.5434 8.98717 20.479 9.10512C18.8859 12.0119 15.6875 12.3127 12.3454 12.6266C8.66158 12.9725 2.95941 13.4642 4.00073 18.9959L2.88 19.2617Z" fill="#FAF2E7"/><path fill-rule="evenodd" clip-rule="evenodd" d="M4.73449 29.0665C0.756136 28.1189 -1.66726 23.7228 1.36023 19.8885C2.50106 18.4431 4.20277 17.5845 6.07937 17.0497C7.83535 16.5489 9.7592 16.336 11.488 16.1791C11.9524 16.1371 12.0901 16.1261 12.2369 16.1141C14.6774 15.9222 22.4592 15.6073 22.2712 12.0149C22.2109 10.8474 21.3274 9.52893 19.9373 9.05714L20.2891 8.06056C22.5828 8.74827 24.5127 10.9363 23.795 13.3993C23.6462 13.911 23.3899 14.4118 23.01 14.8836C20.9032 17.5005 15.186 17.9493 12.3987 18.1682C11.9876 18.2002 11.7192 18.2212 11.674 18.2252C10.0587 18.3711 8.26455 18.571 6.64627 19.0318C4.45104 19.6576 2.21158 20.7751 1.69494 23.1291C1.1994 25.3891 2.77547 27.4532 4.8933 27.912L4.73449 29.0665Z" fill="#FAF2E7"/><path fill-rule="evenodd" clip-rule="evenodd" d="M18.6648 21.2969C21.6691 20.6761 25.0544 19.5556 24.9298 17.4275C24.9057 17.0197 24.7559 16.6019 24.4996 16.225C25.6113 16.4559 28.88 20.999 19.888 23.302C14.4009 24.7074 9.24054 24.5415 7.14683 27.3043C5.48734 29.4933 7.08652 34.7251 9.21742 39.2241C11.095 43.1894 13.7034 46.8978 17.2596 49.8656C17.2596 49.8656 16.3167 32.9009 24.9479 23.8328C24.9479 23.8328 21.2178 30.0301 20.3393 37.6628C19.5483 44.5368 19.3814 47.8924 19.7835 53.0192C19.8116 53.375 19.6428 53.6949 19.3332 53.8738C19.0236 54.0527 18.6607 54.0408 18.3632 53.8418C16.2323 52.4095 12.3042 49.2298 8.89276 43.5013C6.94078 40.2237 5.70747 37.271 4.98477 34.7711C1.42556 22.4674 8.54498 23.388 18.6648 21.2969Z" fill="#FAF2E7"/></svg>